<!DOCTYPE svg PUBLIC "-//W3C//DTD SVG 20010904//EN" "http://www.w3.org/TR/2001/REC-SVG-20010904/DTD/svg10.dtd">
<svg version="1.0" xmlns="http://www.w3.org/2000/svg" width="666px" height="541px" viewBox="0 0 6660 5410" preserveAspectRatio="xMidYMid meet">
<g id="layer101" fill="#000000" stroke="none">
</g>
<g id="layer102" fill="#182d45" stroke="none">
<path d="M2600 5360 c-58 -5 -242 -8 -410 -8 -168 0 -316 -2 -330 -5 -14 -4 -81 -11 -150 -17 -125 -11 -369 -43 -445 -60 -22 -5 -82 -13 -134 -20 -172 -20 -424 -141 -607 -291 -159 -131 -215 -184 -288 -270 -105 -126 -138 -192 -176 -357 -26 -112 -29 -139 -20 -172 13 -48 30 -66 78 -81 55 -17 2639 -31 4715 -26 2008 5 1780 -11 1785 125 7 204 -81 382 -303 611 -119 123 -228 214 -315 263 -66 38 -193 81 -375 128 -185 49 -240 53 -863 69 -204 5 -376 13 -382 16 -5 3 -128 10 -272 16 -145 5 -375 14 -513 19 -137 5 -302 16 -365 24 -285 36 -483 47 -630 36z"/>
<path d="M1025 3861 c-75 -10 -141 -39 -180 -80 -27 -30 -30 -38 -29 -99 0 -81 21 -130 253 -597 171 -344 251 -490 353 -643 87 -129 163 -274 224 -422 58 -144 73 -173 145 -290 94 -154 161 -204 215 -159 40 33 45 71 44 319 0 132 4 301 9 377 12 163 14 329 13 868 -1 230 3 440 9 495 14 124 2 166 -56 195 -34 17 -70 21 -250 27 -348 13 -686 17 -750 9z"/>
<path d="M4653 3856 c-31 -9 -78 -49 -96 -81 -9 -15 -12 -174 -13 -585 0 -574 -17 -1381 -29 -1400 -12 -20 16 -602 30 -637 8 -18 29 -42 47 -53 67 -40 129 -17 169 63 20 40 34 63 132 217 63 100 173 307 323 610 75 151 151 297 170 323 19 26 44 71 55 100 11 29 47 102 79 162 32 61 79 157 103 215 83 192 112 255 134 290 12 19 33 64 46 100 14 36 53 130 87 210 34 80 73 171 87 203 18 44 23 68 18 97 -8 48 -20 63 -70 91 -91 51 -93 51 -283 60 -103 5 -227 13 -277 19 -106 12 -673 9 -712 -4z"/>
<path d="M2412 3831 c-137 -6 -145 -7 -164 -31 -15 -18 -19 -34 -15 -60 27 -171 49 -238 144 -440 30 -63 66 -148 79 -188 13 -39 42 -109 65 -154 23 -45 66 -139 95 -208 59 -136 131 -270 259 -480 45 -74 116 -196 158 -270 41 -74 123 -207 182 -295 59 -88 123 -191 142 -230 20 -38 79 -137 133 -220 53 -82 115 -182 138 -222 23 -40 75 -116 115 -170 129 -174 268 -394 364 -573 92 -173 150 -250 189 -250 27 0 91 72 103 115 17 63 14 520 -5 683 -14 122 -15 175 -3 492 7 195 14 661 15 1035 0 374 4 802 8 951 8 312 4 346 -52 395 -20 17 -50 37 -67 45 -35 14 -457 34 -739 34 -94 0 -220 4 -280 10 -324 29 -650 41 -864 31z"/>
</g>
<g id="layer103" fill="#37949a" stroke="none">
<path d="M1950 5193 c-8 -1 -96 -9 -195 -18 -163 -14 -462 -52 -475 -60 -3 -2 -50 -8 -105 -15 -115 -14 -190 -40 -324 -112 -115 -62 -204 -123 -280 -192 -31 -29 -80 -69 -108 -90 -29 -21 -53 -41 -53 -44 0 -4 -26 -36 -59 -72 -64 -72 -115 -156 -126 -210 -4 -19 -20 -68 -36 -108 -16 -40 -29 -74 -29 -75 0 -1 1317 -3 2928 -4 1610 -1 3032 -5 3161 -8 l234 -7 -6 34 c-36 190 -116 317 -339 533 -172 168 -263 221 -433 251 -43 7 -103 21 -132 29 -129 38 -291 50 -783 60 -146 3 -346 9 -445 15 -336 18 -640 30 -755 30 -64 0 -170 7 -235 15 -342 42 -444 48 -920 49 -259 1 -478 0 -485 -1z"/>
</g>
<g id="layer104" fill="#f9d400" stroke="none">
<path d="M3515 379 c-97 -43 -174 -69 -201 -69 -13 0 -58 17 -99 37 -60 30 -79 35 -93 26 -28 -18 -20 -76 21 -137 41 -61 82 -95 145 -119 60 -24 101 -21 158 9 155 84 178 94 214 94 24 0 92 -22 174 -55 148 -60 187 -67 210 -34 22 32 6 60 -55 95 -30 16 -83 52 -119 78 -149 111 -232 129 -355 75z"/>
</g>


</svg>